<svg id="b557da97-a81b-4428-aeb2-85d46ca82df6" data-name="Layer 1" xmlns="http://www.w3.org/2000/svg" viewBox="0 0 749.89 1007.97"><defs><style>.be1c2fec-d460-45f0-acbc-055bd588311f{fill:#673ab7;}</style></defs><title>logo</title><path class="be1c2fec-d460-45f0-acbc-055bd588311f" d="M937.25,746.89a16.82,16.82,0,0,0,7.15,3.74,274.46,274.46,0,0,0,65.87,8c105.85,0,197.69-60,243.42-147.78l.11-.29a14.64,14.64,0,0,0-3.84-18.29,373.43,373.43,0,0,0-228.83-94.93,30.44,30.44,0,0,0-9.12,1.3,21,21,0,0,0-8.7,6.17A274.69,274.69,0,0,0,933,739.31,18.15,18.15,0,0,0,937.25,746.89Z" transform="translate(-625.06 -497.31)"/><path class="be1c2fec-d460-45f0-acbc-055bd588311f" d="M1311.61,663.1a18.61,18.61,0,0,0-4.08-4.64,14.53,14.53,0,0,0-19.06,1.53,31.72,31.72,0,0,0-2,2.56C1227.94,753.09,1126.11,813,1010.27,813,887.85,813,781.08,746.1,724.5,646.85c-.07-.14-.26-.45-.27-.47l-.71-1.1a13.52,13.52,0,0,0-3.39-3.34l0,0a12,12,0,0,0-7.27-2.18,14,14,0,0,0-9.82,3.65,36.76,36.76,0,0,0-3.32,3.77,374.92,374.92,0,0,0,20.93,474.5l.12.14c.27.3,1.9,1.87,2.18,2.09a14.53,14.53,0,0,0,19.54-1.48,21.76,21.76,0,0,0,2.85-4.33c5.91-12.58,88.79-188.7,88.79-188.7a32.77,32.77,0,0,0,3.26-7.17s0,0,0,0a14.55,14.55,0,0,0-8.47-18l-.06,0-.67-.23-.55-.18c-5.71-1.83-28.05-8.7-41.77-19.61-17.31-13.77-35.85-37.24-49.09-77.73a14.71,14.71,0,0,1-.75-4.62,14.57,14.57,0,0,1,14.57-14.57,14.42,14.42,0,0,1,1.75.12c3.44.54,7.44,1.28,12.1,2.26,33.74,7.15,420,89.71,495.13,105.78a14.57,14.57,0,0,1,11.34,14.2,13.64,13.64,0,0,1-.1,1.57c-.32,2.67-.68,5.39-1.07,7.82-1.34,8.53-13.7,44.13-25.32,55.75C1233,986.16,1206,996.39,1084,1020.93l-2.42.49-.26.07a21.1,21.1,0,0,0-17.64,20.8,19.35,19.35,0,0,0,.17,2.54c0,.1,0,.2,0,.3.28,2.71.76,5.21,1.15,7.23,1.53,8,41.13,118.19,52.76,144.74a83.35,83.35,0,0,0,5.29,9.24c1,1.53,2,2.91,2.17,3.1s.76.87,1.09,1.21a21,21,0,0,0,15.18,6.47c3.9,0,9.38-2.15,9.71-2.3,131.76-58.14,223.73-189.9,223.73-343.17A373.15,373.15,0,0,0,1311.61,663.1Z" transform="translate(-625.06 -497.31)"/><path class="be1c2fec-d460-45f0-acbc-055bd588311f" d="M763.13,603.38A275.36,275.36,0,0,0,866,717.6l.49.3a5.77,5.77,0,0,0,2.91.8,5.87,5.87,0,0,0,5.87-5.77s0-.07,0-.1,0-.26,0-.39c-.4-6.61-.64-13.26-.64-20a327.17,327.17,0,0,1,52.79-178.72,4.86,4.86,0,0,0,.78-2.94,5.92,5.92,0,0,0-4.36-5.69,6.64,6.64,0,0,0-2.9,0,373.32,373.32,0,0,0-150.64,70.28,28.82,28.82,0,0,0-6.21,6,21,21,0,0,0-3.56,11.73,21.27,21.27,0,0,0,.4,4.1A27.78,27.78,0,0,0,763.13,603.38Z" transform="translate(-625.06 -497.31)"/><path class="be1c2fec-d460-45f0-acbc-055bd588311f" d="M723.17,1500.89a6,6,0,0,1-1.81-4.39V1354.28H673.61a6,6,0,0,1-4.39-1.81,6.29,6.29,0,0,1-1.8-4.65v-19.35a6.55,6.55,0,0,1,1.67-4.65,5.9,5.9,0,0,1,4.52-1.81h131.9a6.18,6.18,0,0,1,6.45,6.46v19.35a6.18,6.18,0,0,1-6.45,6.46H758V1496.5a6.21,6.21,0,0,1-1.68,4.39,5.9,5.9,0,0,1-4.52,1.81H727.56A6,6,0,0,1,723.17,1500.89Z" transform="translate(-625.06 -497.31)"/><path class="be1c2fec-d460-45f0-acbc-055bd588311f" d="M1102.08,1496.76a5.92,5.92,0,0,1-1.67,4.13,5.29,5.29,0,0,1-4,1.81H1069.3a8.28,8.28,0,0,1-4.77-1.17,14,14,0,0,1-3.23-3.22l-44.14-70.73H994.45v68.92a6.21,6.21,0,0,1-1.68,4.39,5.88,5.88,0,0,1-4.52,1.81H965.54a6.32,6.32,0,0,1-4.65-1.81,6,6,0,0,1-1.8-4.39v-68.92H936.37l-44.14,70.73a8.41,8.41,0,0,1-7.74,4.39h-27.1a5.58,5.58,0,0,1-4.26-1.81,5.88,5.88,0,0,1-1.68-4.13,4.63,4.63,0,0,1,.78-2.84l53.43-84.66-48.53-78.73a5.65,5.65,0,0,1-1.29-3.1,5.49,5.49,0,0,1,1.42-3.87,5.15,5.15,0,0,1,4-1.55h26.07q6.45,0,9,4.65l41.56,68.4,21.17-.26v-66.59a6,6,0,0,1,1.8-4.39,6.32,6.32,0,0,1,4.65-1.81h22.71a5.79,5.79,0,0,1,6.2,6.2v66.59l20.91.26,41.55-68.4c1.9-3.1,5-4.65,9.3-4.65h26.07a5.18,5.18,0,0,1,4,1.55,5.53,5.53,0,0,1,1.42,3.87,4.8,4.8,0,0,1-1,3.1l-48.78,78.73,53.69,84.66A5.56,5.56,0,0,1,1102.08,1496.76Z" transform="translate(-625.06 -497.31)"/><path class="be1c2fec-d460-45f0-acbc-055bd588311f" d="M1170.62,1487.08q-19.5-18.19-20.78-51.75-.27-7-.26-22.72,0-16,.26-23.23,1.29-33,20.9-51.49t55-18.46q23,0,40,7.87t26.46,21.56a56.06,56.06,0,0,1,9.94,30.71v.52a4.37,4.37,0,0,1-1.68,3.48,5.64,5.64,0,0,1-3.74,1.42h-25a6.65,6.65,0,0,1-4.65-1.42,10.88,10.88,0,0,1-2.58-5q-3.87-16-13.42-22.58t-25.3-6.59q-36.92,0-38.46,41.3-.26,7-.25,21.43t.25,21.94q1.56,41.3,38.46,41.29,15.49,0,25.17-6.58t13.55-22.58a11,11,0,0,1,2.58-5,6.7,6.7,0,0,1,4.65-1.42h25a5.72,5.72,0,0,1,4,1.55,4.38,4.38,0,0,1,1.42,3.87,56.07,56.07,0,0,1-9.94,30.72q-9.42,13.68-26.46,21.55t-40,7.88Q1190.11,1505.28,1170.62,1487.08Z" transform="translate(-625.06 -497.31)"/></svg>