<?xml version="1.0" standalone="no"?>
<!DOCTYPE svg PUBLIC "-//W3C//DTD SVG 20010904//EN"
 "http://www.w3.org/TR/2001/REC-SVG-20010904/DTD/svg10.dtd">
<svg version="1.0" xmlns="http://www.w3.org/2000/svg"
 width="1008.000000pt" height="1008.000000pt" viewBox="0 0 1008.000000 1008.000000"
 preserveAspectRatio="xMidYMid meet">
<metadata>
Created by potrace 1.11, written by Peter Selinger 2001-2013
</metadata>
<g transform="translate(0.000000,1008.000000) scale(0.100000,-0.100000)"
fill="#000000" stroke="none">
<path d="M5175 10071 c-33 -10 -79 -38 -95 -58 -20 -23 -105 -121 -134 -153
-13 -14 -44 -54 -69 -90 -26 -36 -51 -70 -55 -75 -20 -24 -151 -235 -147 -235
3 0 -5 -17 -18 -37 -60 -97 -177 -377 -211 -508 -2 -5 -6 -17 -9 -25 -5 -13
-14 -53 -17 -72 -1 -4 -6 -22 -11 -40 -5 -18 -16 -67 -25 -108 -14 -72 -18
-99 -28 -172 -3 -18 -8 -55 -12 -83 -17 -108 -9 -563 11 -667 3 -12 7 -40 11
-63 8 -58 40 -103 87 -124 37 -17 67 -24 187 -47 86 -16 159 -26 290 -40 51
-5 390 -5 425 0 17 2 59 7 95 11 65 6 99 11 155 21 36 7 58 12 65 14 3 1 9 2
13 1 4 -1 45 8 90 20 45 11 92 22 104 25 43 8 250 82 345 123 92 39 202 94
278 138 19 11 51 29 70 39 19 11 37 22 40 25 3 3 25 18 49 34 25 15 49 31 55
36 46 37 116 89 121 89 3 0 13 8 23 18 10 9 40 35 67 57 114 94 304 296 395
419 25 34 53 70 62 80 10 11 20 28 24 38 3 10 10 18 16 18 6 0 9 3 5 6 -3 3 3
15 14 27 10 11 25 33 31 49 7 15 16 28 20 28 5 0 8 4 8 9 0 4 20 44 44 87 58
103 63 148 25 209 -16 25 -32 45 -36 45 -5 0 -24 15 -43 33 -19 18 -73 63
-120 100 -47 37 -89 71 -95 75 -5 4 -53 37 -105 72 -52 36 -96 68 -98 73 -2 4
-8 7 -13 7 -5 0 -33 15 -62 34 -163 106 -648 336 -709 336 -8 0 -18 4 -23 9
-6 6 -21 12 -35 14 -14 3 -38 11 -55 17 -16 7 -43 16 -60 20 -16 4 -66 18
-110 30 -44 12 -91 24 -105 26 -14 3 -33 7 -42 10 -10 3 -30 7 -45 10 -16 3
-38 7 -50 9 -101 21 -121 24 -173 30 -40 5 -68 9 -150 21 -53 7 -246 11 -265
5z"/>
<path d="M4235 9999 c-16 -5 -41 -10 -55 -13 -56 -9 -371 -101 -400 -117 -8
-5 -35 -15 -60 -23 -99 -32 -409 -176 -518 -241 -9 -5 -44 -26 -77 -45 -56
-32 -117 -70 -140 -87 -6 -5 -46 -32 -90 -62 -44 -30 -82 -57 -85 -60 -3 -4
-30 -25 -62 -48 -89 -67 -124 -164 -90 -254 5 -13 11 -28 13 -34 1 -5 18 -36
36 -67 18 -31 33 -59 33 -62 0 -15 143 -233 224 -340 75 -100 306 -345 396
-422 113 -95 331 -248 367 -256 36 -9 72 35 63 77 -4 18 0 379 4 420 3 22 7
69 10 105 3 36 8 74 10 85 2 11 7 43 11 70 14 105 22 150 25 150 1 0 3 9 5 20
1 11 5 31 8 45 3 14 8 34 11 45 26 114 107 373 140 448 7 18 24 57 36 87 33
81 130 273 183 363 26 43 47 83 47 87 0 5 6 13 13 17 24 15 35 47 25 74 -12
33 -44 48 -83 38z"/>
<path d="M2111 8644 c-18 -8 -41 -24 -52 -36 -20 -24 -146 -199 -164 -229
-116 -191 -149 -250 -191 -334 -27 -55 -51 -102 -54 -105 -14 -12 -141 -333
-175 -440 -35 -110 -71 -241 -81 -290 -3 -14 -7 -33 -10 -42 -6 -21 -13 -54
-20 -98 -3 -19 -7 -43 -10 -52 -6 -21 -9 -39 -24 -143 -6 -44 -13 -91 -15
-103 -27 -161 -26 -743 1 -874 2 -12 7 -43 9 -68 6 -53 11 -83 20 -130 4 -19
8 -44 9 -55 9 -67 82 -358 106 -420 6 -16 12 -32 12 -35 2 -20 98 -282 108
-295 4 -5 11 -21 15 -35 4 -14 21 -53 37 -87 16 -35 27 -64 26 -65 -2 -2 6
-16 18 -33 11 -16 40 -68 63 -114 24 -46 58 -108 77 -137 19 -29 34 -58 34
-64 0 -5 5 -10 10 -10 6 0 10 -7 10 -15 0 -8 5 -15 10 -15 6 0 10 -5 10 -11 0
-26 244 -351 340 -452 55 -60 72 -69 125 -72 58 -3 109 34 147 105 16 30 29
56 29 57 -1 3 39 89 116 253 33 69 60 128 61 133 1 4 19 42 41 85 21 42 61
127 89 187 28 61 81 173 118 250 37 77 68 142 69 145 5 17 30 69 81 175 32 66
59 122 59 125 0 3 13 29 28 58 15 30 27 60 27 68 0 8 5 14 10 14 6 0 10 5 10
11 0 7 18 48 39 93 153 319 155 324 127 389 -20 47 -43 63 -137 97 -46 17 -91
33 -99 37 -8 3 -17 7 -20 8 -5 1 -47 19 -90 39 -81 35 -193 118 -270 197 -46
48 -114 129 -119 143 -2 6 -7 13 -11 16 -11 7 -111 177 -136 230 -21 44 -46
101 -66 150 -6 14 -14 32 -19 42 -19 38 -40 144 -34 175 13 69 77 113 157 108
52 -3 70 -6 158 -26 25 -6 56 -13 70 -16 14 -3 30 -6 35 -7 32 -7 124 -26 145
-30 14 -2 43 -9 65 -14 22 -6 54 -13 70 -16 17 -3 50 -10 75 -15 86 -19 95
-21 125 -26 17 -3 37 -8 45 -10 8 -2 26 -6 40 -9 14 -3 68 -15 120 -26 52 -11
102 -22 110 -24 34 -6 140 -29 215 -46 44 -10 100 -22 125 -25 24 -4 48 -9 53
-12 4 -3 18 -6 30 -8 12 -2 47 -8 77 -15 30 -7 61 -12 68 -13 6 0 12 -3 12 -6
0 -3 12 -6 28 -7 15 -1 50 -6 77 -13 28 -6 64 -14 80 -17 35 -7 42 -9 75 -17
14 -4 36 -9 50 -11 31 -6 62 -13 120 -26 25 -5 56 -12 70 -15 60 -12 115 -23
123 -26 4 -1 30 -6 62 -12 17 -4 62 -13 100 -22 39 -8 79 -17 90 -19 11 -2
139 -30 285 -61 146 -31 272 -58 281 -60 9 -2 61 -13 115 -25 55 -12 110 -24
124 -26 23 -4 106 -22 415 -89 61 -13 121 -26 135 -29 14 -2 48 -10 75 -16 28
-6 59 -13 70 -15 11 -1 43 -8 70 -15 28 -6 61 -14 75 -16 14 -3 77 -16 140
-30 63 -14 129 -28 145 -31 17 -2 48 -9 70 -15 22 -6 49 -12 60 -13 24 -4 293
-61 380 -82 17 -4 35 -7 40 -8 139 -19 201 -78 191 -180 -6 -60 -14 -100 -26
-140 -6 -16 -10 -34 -11 -40 -1 -9 -23 -69 -44 -120 -5 -11 -9 -22 -9 -25 -4
-21 -72 -160 -79 -160 -4 0 -5 -4 -2 -10 3 -5 1 -10 -4 -10 -6 0 -11 -6 -11
-14 0 -17 -66 -104 -99 -131 -61 -49 -266 -140 -361 -160 -8 -2 -56 -15 -106
-29 -50 -15 -100 -29 -110 -31 -10 -2 -37 -9 -59 -15 -22 -6 -51 -13 -65 -16
-14 -3 -52 -12 -85 -20 -33 -8 -71 -17 -84 -20 -12 -2 -51 -11 -85 -19 -33 -8
-74 -16 -91 -19 -57 -11 -75 -15 -84 -20 -4 -3 -28 -8 -52 -11 -81 -10 -459
-94 -487 -109 -65 -34 -110 -101 -113 -171 -2 -50 17 -152 37 -202 9 -20 17
-44 19 -52 2 -9 27 -81 55 -161 29 -80 55 -156 60 -170 10 -32 84 -236 100
-275 6 -16 11 -32 12 -35 0 -3 6 -20 14 -39 8 -18 14 -39 14 -45 0 -7 4 -16
10 -22 5 -5 11 -18 13 -29 2 -11 10 -33 17 -50 18 -45 71 -187 77 -210 3 -11
9 -24 13 -30 4 -5 13 -28 20 -50 33 -105 125 -288 164 -327 76 -77 161 -83
296 -22 52 24 220 109 260 131 101 57 252 151 285 176 6 4 57 42 114 85 57 42
116 86 131 97 89 66 270 234 383 354 37 40 67 76 67 82 0 5 7 9 15 9 8 0 15 3
15 8 0 6 42 61 101 130 18 21 83 108 127 171 9 13 23 29 30 36 6 8 12 16 12
20 0 3 11 21 24 38 38 52 166 267 158 267 -4 0 -2 4 4 8 27 18 242 493 259
572 2 8 4 16 5 18 2 1 3 5 4 10 1 4 14 45 29 92 24 78 62 217 72 265 3 11 10
45 16 75 7 30 13 62 14 70 1 8 4 29 8 45 3 17 8 46 11 65 9 66 19 135 22 153
12 68 19 228 18 442 0 256 -4 321 -28 493 -3 20 -8 55 -11 77 -5 41 -9 68 -20
120 -4 17 -8 39 -10 50 -2 11 -13 58 -25 105 -11 47 -22 92 -24 100 -4 25 -17
72 -39 140 -12 36 -21 68 -22 72 0 3 -3 10 -7 14 -5 4 -8 15 -8 23 0 18 -49
150 -80 218 -11 24 -20 45 -20 48 0 25 -160 340 -229 450 -17 28 -38 65 -48
83 -9 17 -20 32 -25 32 -4 0 -8 6 -8 14 0 23 -87 106 -112 108 -98 6 -121 -6
-191 -107 -58 -84 -95 -136 -144 -200 -146 -189 -384 -425 -588 -580 -49 -38
-92 -71 -95 -74 -7 -8 -41 -29 -60 -38 -8 -3 -19 -12 -23 -20 -4 -7 -12 -13
-17 -13 -5 0 -28 -13 -52 -29 -41 -28 -71 -45 -168 -99 -51 -28 -182 -95 -190
-97 -3 -1 -25 -11 -50 -23 -60 -28 -206 -87 -255 -102 -22 -7 -46 -17 -52 -23
-7 -5 -13 -7 -13 -4 0 4 -19 -1 -42 -9 -24 -9 -51 -17 -60 -19 -9 -2 -51 -13
-92 -25 -41 -11 -92 -23 -112 -25 -20 -3 -40 -8 -46 -11 -5 -3 -24 -8 -41 -10
-18 -3 -54 -9 -82 -14 -27 -6 -72 -13 -100 -16 -27 -3 -63 -7 -80 -10 -175
-23 -607 -23 -745 0 -14 2 -47 7 -75 10 -27 3 -63 9 -80 12 -36 7 -62 12 -95
17 -14 2 -38 7 -55 11 -16 3 -39 8 -50 10 -11 2 -40 9 -65 16 -25 7 -49 13
-55 15 -34 7 -76 19 -115 32 -25 8 -52 16 -61 18 -9 2 -47 15 -85 30 -38 15
-94 36 -124 47 -82 31 -420 199 -420 209 0 5 -3 8 -7 7 -5 -1 -34 14 -66 35
-31 20 -61 37 -66 37 -5 0 -11 3 -13 8 -1 4 -32 27 -68 51 -36 24 -66 48 -68
53 -2 4 -8 8 -13 8 -10 0 -128 94 -209 165 -117 103 -361 358 -410 429 -8 11
-23 30 -33 41 -10 11 -26 32 -35 48 -9 15 -20 27 -24 27 -4 0 -8 5 -8 10 0 11
-39 70 -52 80 -3 3 -36 55 -73 115 -70 117 -89 141 -118 156 -29 16 -82 17
-116 3z"/>
<path d="M7189 1855 c-2 -2 -30 -6 -61 -9 -32 -3 -69 -11 -83 -16 -14 -5 -25
-8 -25 -5 0 11 -168 -68 -201 -95 -21 -16 -43 -30 -48 -30 -6 0 -11 -3 -11 -7
0 -5 -22 -31 -49 -60 -26 -29 -62 -79 -80 -112 -31 -59 -74 -171 -66 -171 3 0
0 -11 -5 -24 -5 -13 -12 -55 -16 -93 -9 -90 -9 -531 0 -608 7 -63 34 -183 45
-200 3 -5 6 -12 6 -15 8 -47 84 -161 149 -223 45 -43 153 -115 181 -122 6 -1
19 -5 30 -9 109 -41 172 -50 340 -51 150 0 205 7 301 36 174 54 306 152 388
290 63 106 97 279 60 310 -19 15 -272 21 -314 7 -24 -8 -50 -47 -50 -75 0 -26
-57 -140 -84 -166 -72 -72 -159 -103 -289 -105 -91 -1 -135 8 -202 38 -53 25
-135 104 -135 130 0 6 -7 22 -16 35 -9 14 -13 25 -10 25 4 0 2 9 -4 20 -21 38
-25 108 -25 395 1 272 2 294 23 361 51 164 155 241 333 248 234 10 347 -67
414 -281 9 -28 24 -55 33 -59 9 -4 80 -8 157 -9 181 -3 190 1 182 89 -4 33 -8
68 -10 76 -34 135 -102 239 -216 329 -56 43 -144 91 -168 91 -7 0 -13 4 -13 8
0 7 -52 22 -170 48 -29 6 -286 15 -291 9z"/>
<path d="M1762 1832 c-38 -6 -49 -46 -48 -169 2 -164 -18 -153 288 -153 136 0
248 -3 249 -7 0 -5 2 -331 2 -725 2 -667 3 -719 19 -735 15 -15 38 -17 162
-17 128 0 147 2 166 19 11 10 20 26 19 34 -1 9 -1 21 0 26 1 6 1 324 1 708 l0
697 249 0 c305 0 289 -7 289 133 0 51 1 97 3 102 4 17 -12 64 -28 76 -11 9
-175 13 -681 13 -367 1 -677 0 -690 -2z"/>
<path d="M3652 1832 c-24 -2 -36 -11 -47 -32 -13 -25 -13 -30 4 -51 9 -13 45
-69 78 -124 100 -166 128 -210 134 -215 3 -3 8 -10 10 -15 4 -10 79 -133 111
-183 10 -15 21 -34 25 -42 4 -8 20 -34 35 -56 15 -23 28 -46 28 -52 0 -6 4
-12 8 -14 10 -4 52 -76 52 -89 0 -6 -15 -34 -34 -62 -18 -29 -69 -108 -111
-177 -43 -69 -84 -134 -92 -145 -8 -11 -63 -99 -123 -195 -60 -96 -113 -180
-117 -186 -47 -63 -65 -111 -53 -135 17 -31 37 -34 205 -34 183 1 165 -10 267
155 36 58 105 169 154 248 98 157 99 158 167 270 l49 78 114 1 114 1 0 -353
c0 -327 1 -354 18 -375 18 -22 26 -23 155 -24 114 -1 140 1 159 15 l23 18 1
353 c1 194 2 356 3 360 0 3 51 5 112 5 l112 -2 118 -190 c65 -104 123 -195
129 -202 5 -7 10 -14 10 -17 0 -6 74 -125 88 -141 5 -6 11 -15 13 -21 17 -43
98 -156 120 -166 18 -9 74 -13 177 -13 133 1 153 3 171 20 32 28 26 54 -34
150 -30 48 -55 89 -55 91 0 3 -8 13 -17 24 -10 10 -27 36 -38 57 -11 21 -24
43 -28 48 -17 21 -93 141 -106 168 -8 15 -18 27 -23 27 -4 0 -8 4 -8 10 0 9
-43 78 -157 253 -24 38 -45 76 -45 85 -1 10 15 43 35 74 20 31 37 61 37 67 0
5 4 11 8 13 8 3 53 75 116 181 10 18 22 34 27 35 5 2 9 8 9 13 0 13 161 272
175 281 5 4 6 8 1 8 -5 0 -2 8 6 18 32 37 75 118 72 136 -6 43 -25 49 -171 49
-161 1 -203 -6 -223 -33 -14 -20 -132 -212 -291 -475 -40 -66 -88 -143 -106
-172 l-33 -52 -92 4 c-51 1 -98 3 -103 4 -7 1 -10 122 -11 346 0 307 -2 347
-16 362 -25 24 -292 23 -317 -1 -14 -15 -17 -60 -21 -364 l-5 -347 -104 0
-103 0 -69 110 c-38 61 -72 117 -76 125 -7 16 -123 207 -151 250 -9 14 -17 27
-17 30 0 3 -14 25 -29 50 -16 25 -44 68 -62 97 -28 43 -39 53 -71 59 -39 8
-233 11 -291 6z"/>
</g>
</svg>
